<svg xmlns="http://www.w3.org/2000/svg" xmlns:xlink="http://www.w3.org/1999/xlink" width="32" height="32" viewBox="0 0 32 32">
    <defs>
        <path id="a" d="M0 0h26.668v29.643H0z"/>
    </defs>
    <g fill="none" fill-rule="evenodd">
        <path fill="" d="M0 0h32v32H0z"/>
        <g transform="translate(2 1)">
            <mask id="b" fill="#fff">
                <use xlink:href="#a"/>
            </mask>
            <path fill="#FFF" d="M25.24 21.779c-.741 3.708-6.394 6.56-12.704 6.56-3.124 0-6.408-.7-9.336-2.34-.908-.552-1.732-1.151-1.732-2.4 0-2.058 1.81-3.777 1.81-8.486 0-3.397-1.944-5.008-1.944-7.492 0-3.191 7.12-6.317 13.3-6.317 4.126 0 7.834 1.395 8.718 5.095.622 2.601-.47 4.796-3.226 7.808 3.58 2.093 5.686 4.707 5.114 7.572m-3.11-7.856c2.08-2.51 3.22-4.897 2.52-7.821C23.725 2.224 20.075 0 14.635 0 8.006 0 0 3.4 0 7.621c0 1.409.49 2.546.963 3.645.505 1.172.983 2.28.983 3.847 0 2.604-.584 4.159-1.098 5.532-.366.98-.713 1.905-.713 2.955 0 2.067 1.536 3.003 2.36 3.506 2.975 1.668 6.433 2.537 10.041 2.537 7.122 0 13.146-3.273 14.012-7.615.418-2.086-.07-5.113-4.418-8.105" mask="url(#b)"/>
        </g>
    </g>
</svg>
