<svg xmlns="http://www.w3.org/2000/svg" xmlns:xlink="http://www.w3.org/1999/xlink" width="32" height="32" viewBox="0 0 32 32">
    <defs>
        <path id="a" d="M0 0h29.857v27.853H0z"/>
    </defs>
    <g fill="none" fill-rule="evenodd">
        <path fill="" d="M0 0h32v32H0z"/>
        <g transform="translate(1 2)">
            <mask id="b" fill="#fff">
                <use xlink:href="#a"/>
            </mask>
            <path fill="#FFF" d="M1.287 26.527h27.286V7.6H1.287v18.927zM1.286 6.273H28.57V1.327H1.286v4.946zM29.216 0H.644A.654.654 0 0 0 0 .664V27.19c0 .366.289.663.644.663h28.572a.654.654 0 0 0 .643-.663V.664A.654.654 0 0 0 29.216 0z" mask="url(#b)"/>
            <path fill="#FFF" d="M4.243 4.968c.563 0 1.019-.508 1.019-1.136 0-.627-.456-1.135-1.019-1.135s-1.019.508-1.019 1.135c0 .628.456 1.136 1.019 1.136M7.555 4.968c.563 0 1.019-.508 1.019-1.136 0-.627-.456-1.135-1.019-1.135s-1.019.508-1.019 1.135c0 .628.456 1.136 1.019 1.136M15.563 17.418v6.904h-1.726l.057-6.82-2.363-.033.006-1.647 2.323.01-.049-2.038c-.013-.601.09-1.135.159-1.487.001-.01.197-1.018 1.136-1.6.487-.304.824-.44 1.978-.41l.484.009c.26.004.442.009.76.037v1.361h-.325c-.839.002-1.633.003-2.07.574-.362.468-.362 1.033-.362 1.684v1.864h2.596l-.211 1.589-2.393.003zm1.203-4.457c.117-.151.712-.156 1.191-.159l.927-.001.51-.072V9.363l-.47-.06c-.727-.086-.964-.09-1.354-.095l-.459-.01c-1.21-.028-1.804.101-2.554.567-1.276.791-1.59 2.118-1.643 2.382-.067.356-.181.954-.167 1.674l.023.906-2.297-.01-.007 3.837 2.354.031-.057 6.836h3.865l-.001-6.905 2.257-.005.506-3.783h-2.754v-.766c0-.514.007-.838.13-1z" mask="url(#b)"/>
        </g>
    </g>
</svg>
