<svg xmlns="http://www.w3.org/2000/svg" xmlns:xlink="http://www.w3.org/1999/xlink" width="32" height="32" viewBox="0 0 32 32">
    <defs>
        <path id="a" d="M0 0h16.352v29.328H0z"/>
    </defs>
    <g fill="none" fill-rule="evenodd">
        <path fill="" d="M0 0h32v32H0z"/>
        <g transform="translate(8 1)">
            <mask id="b" fill="#fff">
                <use xlink:href="#a"/>
            </mask>
            <path fill="#FFF" d="M14.745 11.585l-.498 3.619-4.52.006v12.768H5.747L5.86 15.36l-4.506-.06.012-3.726 4.424.018-.083-3.415c-.027-1.15.17-2.141.306-2.823.015-.085.426-2.046 2.327-3.188 1.024-.62 1.798-.868 3.955-.807l.893.016c.6.01.978.016 1.815.103v3.165h-.908c-1.593.004-2.995-.005-3.738.933-.615.774-.615 1.713-.615 2.902v3.107h5.004zm-3.331-5.171c.336-.423 1.48-.412 2.679-.421h1.584l.675-.094V.273l-.596-.07C14.403.045 13.953.037 13.208.025l-.876-.018c-2.219-.055-3.315.173-4.69 1.001-2.365 1.424-2.9 3.813-2.972 4.17-.13.648-.345 1.732-.314 3.03l.05 2.028-4.388-.018L0 16.632l4.497.06-.11 12.636h6.69V16.557l4.348-.005.868-6.317h-5.202V8.478c0-1.059.015-1.675.323-2.064z" mask="url(#b)"/>
        </g>
    </g>
</svg>
