<svg xmlns="http://www.w3.org/2000/svg" xmlns:xlink="http://www.w3.org/1999/xlink" width="32" height="32" viewBox="0 0 32 32">
    <defs>
        <path id="a" d="M0 0h27.116v29.143H0z"/>
    </defs>
    <g fill="none" fill-rule="evenodd">
        <path fill="" d="M0 0h32v32H0z"/>
        <g transform="translate(2 1)">
            <mask id="b" fill="#fff">
                <use xlink:href="#a"/>
            </mask>
            <path fill="#FFF" d="M25.63 19.132c0 1.09-.833 1.983-1.904 2.117-.037-.004-.07-.02-.108-.02a.745.745 0 0 0-.246.049h-.429a.561.561 0 0 1-.563-.557v-6.097c0-.307.254-.557.563-.557h.507c1.201 0 2.18.962 2.18 2.145v2.92zm-8.555 8.557H15.11a.535.535 0 0 1-.539-.532c0-.295.242-.533.538-.533l1.966.001a.533.533 0 1 1 0 1.064zM4.173 14.067c.31 0 .563.25.563.557v6.097a.56.56 0 0 1-.563.557h-.506c-1.202 0-2.18-.963-2.18-2.146v-2.92c0-1.183.978-2.145 2.18-2.145h.506zm20.575-1.209v-1.867c0-6.06-5.019-10.992-11.19-10.992-6.17 0-11.19 4.932-11.19 10.992v1.867c-1.381.519-2.369 1.821-2.369 3.354v2.92c0 1.986 1.647 3.6 3.668 3.6h.506c1.13 0 2.05-.903 2.05-2.011v-6.097c0-1.109-.92-2.009-2.05-2.009h-.318v-1.624c0-5.259 4.353-9.537 9.704-9.537 5.35 0 9.703 4.278 9.703 9.537v1.624h-.319c-1.13 0-2.05.9-2.05 2.009v6.097c0 1.06.842 1.92 1.903 1.996-.348 1.904-1.97 3.358-3.967 3.508-.093-.166-.182-.334-.322-.47a2.03 2.03 0 0 0-1.432-.583l-1.966-.001c-1.115 0-2.025.891-2.026 1.986 0 1.095.909 1.987 2.025 1.987h1.967c.939 0 1.723-.635 1.951-1.485 2.754-.245 4.944-2.351 5.267-5.032 1.614-.376 2.824-1.796 2.824-3.495v-2.92c0-1.533-.99-2.837-2.369-3.354z" mask="url(#b)"/>
        </g>
    </g>
</svg>
