<svg xmlns="http://www.w3.org/2000/svg" width="32" height="32" viewBox="0 0 32 32">
    <g fill="none" fill-rule="evenodd">
        <path fill="" d="M0 0h32v32H0z"/>
        <g fill="#FFF">
            <path d="M2.286 26.737H29.57V10.515H2.286v16.222zm0-17.36H29.57v-4.24H2.286v4.24zM30.214 4H1.643C1.289 4 1 4.256 1 4.569v22.737c0 .313.289.568.643.568h28.571c.356 0 .643-.255.643-.568V4.569c0-.313-.287-.568-.643-.568z"/>
            <path d="M5.243 8.258c.563 0 1.019-.436 1.019-.974 0-.537-.456-.972-1.019-.972s-1.018.435-1.018.972c0 .538.455.974 1.018.974M8.555 8.258c.563 0 1.019-.436 1.019-.974 0-.537-.456-.972-1.019-.972s-1.017.435-1.017.972c0 .538.454.974 1.017.974M19.54 18.157c-.255.873-.494 1.682-.658 2.491h-.056c-.2-.792-.492-1.633-.785-2.474l-1.445-3.993h-1.352l-1.372 3.912a29.69 29.69 0 0 0-.787 2.555h-.054c-.147-.792-.385-1.618-.677-2.539l-1.263-3.928H9.5l2.853 7.825h1.462l1.353-3.735c.312-.874.567-1.65.787-2.572h.038c.218.939.492 1.749.804 2.589l1.427 3.718h1.463l2.67-7.825H20.71l-1.17 3.976z"/>
        </g>
    </g>
</svg>
