<svg xmlns="http://www.w3.org/2000/svg" xmlns:xlink="http://www.w3.org/1999/xlink" width="32" height="32" viewBox="0 0 32 32">
    <defs>
        <path id="a" d="M0 0h30v30H0z"/>
    </defs>
    <g fill="none" fill-rule="evenodd">
        <path fill="" d="M0 0h32v32H0z"/>
        <g transform="translate(1 1)">
            <mask id="b" fill="#fff">
                <use xlink:href="#a"/>
            </mask>
            <path fill="#FFF" d="M17.147 30h-4.293a1.604 1.604 0 0 1-1.602-1.602v-2.193a11.56 11.56 0 0 1-1.524-.631l-1.551 1.55a1.597 1.597 0 0 1-2.265 0L2.876 24.09a1.597 1.597 0 0 1-.47-1.134c0-.427.167-.83.47-1.133l1.55-1.55c-.245-.491-.457-1.001-.63-1.524H1.601A1.597 1.597 0 0 1 0 17.146v-4.293a1.597 1.597 0 0 1 1.602-1.602h2.193a11.56 11.56 0 0 1 .632-1.525l-1.551-1.55a1.59 1.59 0 0 1-.47-1.133c0-.427.167-.83.47-1.134l3.036-3.034a1.597 1.597 0 0 1 2.265 0l1.55 1.55a11.56 11.56 0 0 1 1.525-.631V1.602C11.252.718 11.97 0 12.854 0h4.293c.883 0 1.602.719 1.602 1.602v2.193c.522.174 1.032.386 1.524.631l1.55-1.55a1.597 1.597 0 0 1 2.265 0l3.037 3.034c.303.304.468.707.468 1.134 0 .428-.165.83-.468 1.133l-1.551 1.55c.246.491.456 1.002.631 1.524h2.193c.884 0 1.602.719 1.602 1.603v4.293c0 .883-.718 1.602-1.602 1.602h-2.193a11.981 11.981 0 0 1-.631 1.524l1.55 1.55a1.606 1.606 0 0 1 0 2.267l-3.035 3.035a1.597 1.597 0 0 1-2.265 0l-1.551-1.552c-.492.247-1.002.458-1.524.632v2.193c0 .884-.719 1.602-1.602 1.602m-7.524-5.667c.09 0 .181.023.267.069.657.357 1.356.646 2.076.86.238.07.4.287.4.534v2.602c0 .268.218.488.488.488h4.293a.488.488 0 0 0 .487-.488v-2.602c0-.247.162-.464.4-.534.72-.213 1.42-.503 2.077-.86a.557.557 0 0 1 .661.095l1.84 1.84a.487.487 0 0 0 .344.141c.13 0 .254-.05.345-.141l3.035-3.036c.19-.19.19-.5 0-.69l-1.84-1.839a.557.557 0 0 1-.095-.662c.358-.657.648-1.355.86-2.077a.558.558 0 0 1 .535-.399h2.602a.488.488 0 0 0 .488-.488v-4.293a.488.488 0 0 0-.488-.487h-2.602a.558.558 0 0 1-.534-.399 10.625 10.625 0 0 0-.861-2.078.557.557 0 0 1 .096-.661l1.839-1.839a.487.487 0 0 0 0-.69L23.3 3.663a.487.487 0 0 0-.345-.141c-.13 0-.252.05-.345.141l-1.839 1.84a.557.557 0 0 1-.661.095 10.713 10.713 0 0 0-2.078-.86.558.558 0 0 1-.399-.534V1.603a.488.488 0 0 0-.487-.488h-4.293a.487.487 0 0 0-.488.488v2.603a.557.557 0 0 1-.4.534c-.72.213-1.42.502-2.076.859a.557.557 0 0 1-.662-.095L7.39 3.663a.487.487 0 0 0-.345-.141c-.13 0-.253.05-.345.141L3.663 6.699a.486.486 0 0 0 0 .69l1.84 1.839a.56.56 0 0 1 .095.662 10.713 10.713 0 0 0-.86 2.077.558.558 0 0 1-.533.399H1.602a.486.486 0 0 0-.487.488v4.293a.486.486 0 0 0 .487.487h2.603c.246 0 .463.162.534.399.213.721.502 1.42.86 2.077a.56.56 0 0 1-.095.662l-1.84 1.839a.488.488 0 0 0 0 .69l3.035 3.036a.484.484 0 0 0 .345.141c.13 0 .252-.05.345-.141l1.84-1.84a.56.56 0 0 1 .394-.164M15 20.765A5.771 5.771 0 0 1 9.236 15 5.771 5.771 0 0 1 15 9.236 5.771 5.771 0 0 1 20.765 15 5.771 5.771 0 0 1 15 20.765m0-10.415A4.655 4.655 0 0 0 10.35 15 4.655 4.655 0 0 0 15 19.65 4.656 4.656 0 0 0 19.65 15 4.656 4.656 0 0 0 15 10.35" mask="url(#b)"/>
        </g>
    </g>
</svg>
