<svg xmlns="http://www.w3.org/2000/svg" width="32" height="32" viewBox="0 0 32 32">
    <g fill="none" fill-rule="evenodd">
        <path fill="" d="M0 0h32v32H0z"/>
        <g fill="#FCFCFC">
            <path d="M21.144 31c-1.475 0-6.786-.5-13.215-6.926-6.43-6.43-6.928-11.742-6.928-13.218 0-2.462 3.088-6.236 4.35-6.25L6.875 4.6c.628 0 1.172.4 1.36.991l1.894 5.976c.16.507.026 1.057-.35 1.434l-2.22 2.219a.215.215 0 0 0-.039.26c.524.924 1.735 2.801 3.967 5.034 2.228 2.228 4.11 3.441 5.032 3.966.084.048.193.03.262-.04l2.218-2.218c.371-.372.936-.51 1.435-.35l5.974 1.893c.596.19.994.736.991 1.36l-.004 1.518C27.377 27.91 23.605 31 21.145 31zM5.403 5.804c-.69.247-3.204 3.106-3.204 5.052 0 1.359.475 6.265 6.576 12.367 6.105 6.102 11.011 6.577 12.37 6.577 1.944 0 4.803-2.512 5.05-3.203l.006-1.476a.223.223 0 0 0-.156-.212l-5.974-1.893a.223.223 0 0 0-.224.054l-2.218 2.22a1.441 1.441 0 0 1-1.703.232c-.975-.553-2.96-1.831-5.287-4.16-2.332-2.33-3.608-4.313-4.162-5.287a1.42 1.42 0 0 1 .235-1.703l2.218-2.219a.22.22 0 0 0 .055-.223L7.09 5.955a.219.219 0 0 0-.21-.155l-1.479.004z"/>
            <path d="M22 1c-4.962 0-9 4.038-9 9 0 1.692.469 3.33 1.358 4.756l-1.319 3.43a.599.599 0 0 0 .776.774l3.429-1.32A8.952 8.952 0 0 0 22 19c4.962 0 9-4.038 9-9s-4.038-9-9-9m0 16.86a7.816 7.816 0 0 1-4.384-1.336.543.543 0 0 0-.497-.056l-2.578.991.991-2.579a.54.54 0 0 0-.056-.496A7.822 7.822 0 0 1 14.14 10c0-4.334 3.526-7.86 7.86-7.86 4.335 0 7.86 3.526 7.86 7.86 0 4.334-3.525 7.86-7.86 7.86"/>
            <path d="M23.2 10a1.201 1.201 0 1 1-2.403 0 1.201 1.201 0 0 1 2.403 0M19 10a1.201 1.201 0 1 1-2.402 0A1.201 1.201 0 0 1 19 10M27.4 10a1.201 1.201 0 1 1-2.403 0 1.201 1.201 0 0 1 2.403 0"/>
        </g>
    </g>
</svg>
