<svg xmlns="http://www.w3.org/2000/svg" xmlns:xlink="http://www.w3.org/1999/xlink" width="32" height="32" viewBox="0 0 32 32">
    <defs>
        <path id="a" d="M0 0h29.032v16H0z"/>
    </defs>
    <g fill="none" fill-rule="evenodd">
        <g transform="translate(1 8)">
            <mask id="b" fill="#fff">
                <use xlink:href="#a"/>
            </mask>
            <path fill="#16254F" d="M28.428 0H8.468l-1.21 1.231L6.049 0H.606A.61.61 0 0 0 0 .615v14.77c0 .34.27.615.605.615H6.05l1.21-1.229L8.469 16h19.959a.61.61 0 0 0 .605-.615V.615A.61.61 0 0 0 28.428 0zm-.605 14.771H8.97l-.856-.871-.855-.871-.856.871-.855.871H1.21V1.231h4.338l.855.87.856.87.855-.87.856-.87h18.853v13.54z" mask="url(#b)"/>
        </g>
        <path fill="#16254F" d="M16.726 16c1.336 0 2.42-1.102 2.42-2.461 0-1.36-1.084-2.461-2.42-2.461-1.335 0-2.42 1.102-2.42 2.46 0 1.36 1.084 2.463 2.42 2.463m0-3.693c.667 0 1.21.552 1.21 1.23 0 .68-.543 1.232-1.21 1.232-.666 0-1.21-.552-1.21-1.231 0-.68.544-1.231 1.21-1.231M21.565 16c-1.336 0-2.42 1.103-2.42 2.462 0 1.359 1.084 2.463 2.42 2.463 1.335 0 2.42-1.104 2.42-2.463 0-1.36-1.085-2.461-2.42-2.461m0 3.692a1.22 1.22 0 0 1-1.21-1.232c0-.677.542-1.23 1.21-1.23.667 0 1.21.553 1.21 1.23 0 .68-.543 1.232-1.21 1.232M15.34 20.744l8.468-8.616-.857-.87-8.467 8.615zM8.258 11.692a.61.61 0 0 0-.605.615.61.61 0 0 0 .605.616.61.61 0 0 0 .605-.616.61.61 0 0 0-.605-.615M8.258 14.154a.61.61 0 0 0-.605.615c0 .34.272.615.605.615a.61.61 0 0 0 .605-.615.61.61 0 0 0-.605-.615M8.258 16.616a.61.61 0 0 0-.605.616c0 .339.272.615.605.615a.61.61 0 0 0 .605-.615.61.61 0 0 0-.605-.616M8.258 19.078a.61.61 0 0 0-.605.615c0 .34.272.615.605.615a.61.61 0 0 0 .605-.615.61.61 0 0 0-.605-.615"/>
    </g>
</svg>
