<svg xmlns="http://www.w3.org/2000/svg" xmlns:xlink="http://www.w3.org/1999/xlink" width="32" height="32" viewBox="0 0 32 32">
    <defs>
        <path id="a" d="M0 0h30v24H0z"/>
    </defs>
    <g fill="none" fill-rule="evenodd">
        <g transform="translate(1 4)">
            <mask id="b" fill="#fff">
                <use xlink:href="#a"/>
            </mask>
            <path fill="#16254F" d="M28.8 22.2a.6.6 0 0 1-.6.6H1.8a.6.6 0 0 1-.6-.6V1.8a.6.6 0 0 1 .6-.6h26.4a.6.6 0 0 1 .6.6v20.4zM28.2 0H1.8C.808 0 0 .807 0 1.8v20.4c0 .992.808 1.8 1.8 1.8h26.4c.993 0 1.8-.808 1.8-1.8V1.8c0-.993-.807-1.8-1.8-1.8z" mask="url(#b)"/>
        </g>
        <path fill="#16254F" d="M22.424 12.576a.6.6 0 0 0-.827-.02L15 18.554l-2.81-2.41a.603.603 0 0 0-.798.016l-7.8 7.2a.6.6 0 0 0 .815.883l7.407-6.84 5.894 5.054a.6.6 0 1 0 .782-.912L15.92 19.34l6.062-5.511 5.594 5.596a.6.6 0 1 0 .85-.85l-6-6zM8.5 8.8c1.157 0 2.1.942 2.1 2.1 0 1.158-.943 2.1-2.1 2.1s-2.1-.942-2.1-2.1c0-1.158.943-2.1 2.1-2.1m0 5.4c1.82 0 3.3-1.48 3.3-3.3 0-1.82-1.48-3.3-3.3-3.3-1.82 0-3.3 1.48-3.3 3.3 0 1.82 1.48 3.3 3.3 3.3"/>
    </g>
</svg>
