<svg xmlns="http://www.w3.org/2000/svg" xmlns:xlink="http://www.w3.org/1999/xlink" width="32" height="32" viewBox="0 0 32 32">
    <defs>
        <path id="a" d="M0 0h30v16H0z"/>
        <linearGradient id="b" x1="0%" y1="50%" y2="50%">
            <stop offset="0%" stop-color="#42A3FF"/>
            <stop offset="100%" stop-color="#90EBFF"/>
        </linearGradient>
        <linearGradient id="d" x1="0%" y1="50%" y2="50%">
            <stop offset="0%" stop-color="#42A3FF"/>
            <stop offset="100%" stop-color="#90EBFF"/>
        </linearGradient>
    </defs>
    <g fill="none" fill-rule="evenodd">
        <g transform="translate(1 8)">
            <mask id="c" fill="#fff">
                <use xlink:href="#a"/>
            </mask>
            <path fill="url(#b)" d="M19.874 13.793c1.36-1.459 2.214-3.513 2.214-5.793 0-2.451-.984-4.647-2.528-6.115 3.167.95 6.213 2.976 9.094 6.11-1.09 1.132-4.352 4.22-8.78 5.798M1.346 8.006c1.089-1.133 4.351-4.221 8.78-5.8C8.766 3.666 7.912 5.721 7.912 8c0 2.451.984 4.647 2.529 6.116-3.168-.95-6.214-2.977-9.095-6.11m14.379 6.692c-.284.022-.57.041-.86.047C11.63 14.663 9.018 11.672 9.018 8c0-3.445 2.3-6.291 5.258-6.697.284-.024.57-.042.86-.047 3.236.082 5.848 3.072 5.848 6.744 0 3.446-2.3 6.291-5.258 6.698m14.114-7.14C25.347 2.492 20.45-.044 15.265.002c-.041 0-.08.007-.121.008C15.095.008 15.049 0 15 0c-.305 0-.601.029-.895.07C6.096.746.405 7.277.155 7.568a.682.682 0 0 0 .006.874C4.607 13.458 9.456 16 14.58 16l.156-.002c.041 0 .08-.006.121-.007.049 0 .095.008.144.008.305 0 .601-.029.896-.07 8.008-.674 13.7-7.206 13.95-7.497a.683.683 0 0 0-.007-.874" mask="url(#c)"/>
        </g>
        <path fill="url(#d)" d="M15 11.41c-1.667 0-3.023-1.53-3.023-3.41 0-1.88 1.356-3.41 3.023-3.41S18.022 6.12 18.022 8c0 1.88-1.355 3.41-3.022 3.41m0-8.068c-2.275 0-4.128 2.09-4.128 4.658 0 2.568 1.853 4.658 4.128 4.658 2.275 0 4.128-2.09 4.128-4.658 0-2.568-1.853-4.658-4.128-4.658" transform="translate(1 8)"/>
    </g>
</svg>
