<svg xmlns="http://www.w3.org/2000/svg" width="32" height="32" viewBox="0 0 32 32">
    <g fill="#16254F" fill-rule="evenodd">
        <path d="M2.396 27.041h26.653V4.395H2.396v22.646zM29.746 3H1.699A.698.698 0 0 0 1 3.697v24.04c0 .385.312.698.698.698h28.049a.698.698 0 0 0 .697-.698V3.697A.698.698 0 0 0 29.747 3z"/>
        <path d="M19.704 13.787h5.746V8.132h-5.746v5.655zm-.697 1.393h7.14a.699.699 0 0 0 .699-.697V7.435a.699.699 0 0 0-.698-.698h-7.141a.698.698 0 0 0-.698.698v7.048c0 .384.312.697.698.697zM19.704 23.945h5.746V18.29h-5.746v5.655zm-.697 1.394h7.14a.699.699 0 0 0 .699-.697v-7.05a.699.699 0 0 0-.698-.697h-7.141a.698.698 0 0 0-.698.698v7.05c0 .382.312.696.698.696zM5.176 10.16H16.24a.698.698 0 0 0 0-1.394H5.176a.698.698 0 0 0 0 1.395M5.176 12.795H16.24a.698.698 0 0 0 0-1.394H5.176a.697.697 0 1 0 0 1.394M5.176 20.22H16.24a.698.698 0 0 0 0-1.395H5.176a.697.697 0 1 0 0 1.394M5.176 22.854H16.24a.698.698 0 0 0 0-1.394H5.176a.697.697 0 1 0 0 1.394"/>
    </g>
</svg>
