<svg xmlns="http://www.w3.org/2000/svg" width="32" height="32" viewBox="0 0 32 32">
    <g fill="#000" fill-rule="evenodd">
        <path d="M18.394 23.392a.606.606 0 0 0-.606.607v5.788h-3.576V24a.607.607 0 0 0-.606-.607h-2.65L16 16.805l5.044 6.587h-2.65zm4.421.875a.607.607 0 0 0-.062-.637l-6.272-8.19a.605.605 0 0 0-.962 0l-6.272 8.19a.605.605 0 0 0 .48.975H13v5.789c0 .335.272.606.606.606h4.788a.605.605 0 0 0 .606-.606v-5.79h3.272a.608.608 0 0 0 .543-.337z"/>
        <path d="M16 1C7.729 1 1 7.73 1 16c0 6.13 3.67 11.586 9.347 13.897a.606.606 0 1 0 .457-1.123A13.74 13.74 0 0 1 2.212 16C2.212 8.398 8.397 2.213 16 2.213c7.603 0 13.788 6.185 13.788 13.787a13.741 13.741 0 0 1-8.592 12.774.606.606 0 0 0 .457 1.123A14.947 14.947 0 0 0 31 16C31 7.73 24.271 1 16 1"/>
        <path d="M20.925 18.057a.605.605 0 0 0 .75-.413A5.881 5.881 0 0 0 21.909 16a5.916 5.916 0 0 0-5.91-5.909 5.916 5.916 0 0 0-5.675 7.553.605.605 0 1 0 1.165-.337A4.701 4.701 0 0 1 16 11.303a4.702 4.702 0 0 1 4.513 6.004.605.605 0 0 0 .413.75"/>
        <path d="M16 6.757c5.096 0 9.242 4.146 9.242 9.243a9.195 9.195 0 0 1-1.572 5.158.605.605 0 1 0 1.005.678A10.403 10.403 0 0 0 26.455 16c0-5.765-4.69-10.454-10.455-10.454S5.545 10.236 5.545 16c0 2.09.616 4.108 1.78 5.836a.606.606 0 1 0 1.005-.677A9.195 9.195 0 0 1 6.758 16c0-5.097 4.146-9.243 9.242-9.243"/>
    </g>
</svg>
