<svg xmlns="http://www.w3.org/2000/svg" xmlns:xlink="http://www.w3.org/1999/xlink" width="17" height="16" viewBox="0 0 17 16">
    <defs>
        <path id="a" d="M15.922 5.884c-.155-.422-.544-.76-.933-.76l-4.12-.59L9.08.658C8.77.067 8.07-.186 7.447.15c-.233.169-.388.337-.466.506L5.193 4.535l-4.199.674c-.389.085-.777.337-.933.759-.155.421 0 .843.311 1.18l3.032 3.204-.622 4.3c-.077.42.156.926.467 1.095a1.31 1.31 0 0 0 1.244.084l3.576-2.023 3.655 2.023c.155.085.388.169.544.169.233 0 .466-.084.7-.253.388-.253.544-.674.466-1.18l-.7-4.384 2.955-3.12c.311-.252.389-.758.233-1.18"/>
    </defs>
    <g fill="none" fill-rule="evenodd">
        <g transform="translate(.6)">
            <mask id="b" fill="#fff">
                <use xlink:href="#a"/>
            </mask>
            <use fill="#FFF" xlink:href="#a"/>
            <path fill="#16254F" fill-rule="nonzero" d="M8 0h8v16H8z" mask="url(#b)"/>
        </g>
        <path fill="#16254F" d="M8.651 13.046l3.627 1.997c.149.08.297.08.37.08.149 0 .297-.08.445-.161.222-.16.37-.4.295-.718l-.665-4.392 2.961-3.114c.147-.16.222-.4.147-.719-.073-.24-.37-.479-.517-.479l-4.146-.56-1.776-3.832C9.095.83 8.652.75 8.206.908l-.295.32-1.777 3.913-4.146.638c-.222.08-.518.16-.592.48-.148.24 0 .48.222.639l3.036 3.194-.593 4.311c-.074.24.074.559.222.64.297.158.592.158.889.08l3.48-2.077zM12.648 16c-.221 0-.518-.08-.665-.24L8.65 14.004 5.394 15.84c-.52.24-1.11.159-1.555-.08-.445-.24-.74-.878-.593-1.437l.593-3.833L1.1 7.537C.655 7.057.508 6.499.655 5.94c.148-.48.593-.879 1.185-.96l3.85-.637L7.318.829c.075-.24.297-.4.593-.64.814-.399 1.703-.158 2.073.64l1.628 3.514 3.702.558c.444 0 .962.4 1.184.959.222.559.074 1.277-.37 1.597l-2.665 2.795.666 3.911c.074.64-.148 1.198-.592 1.518-.297.24-.592.319-.889.319z"/>
    </g>
</svg>
