<svg xmlns="http://www.w3.org/2000/svg" width="32" height="32" viewBox="0 0 32 32">
    <path fill="#FFF" fill-rule="evenodd" d="M27.007 22.6L24.6 23.62l-3.345-7.687H13.35l-.077-1.584h5.626v-2.491h-5.747l-.19-3.918a2.49 2.49 0 1 0-2.55-1.133l.566 11.617h8.644l3.679 8.454 4.68-1.987-.974-2.293zm-13.288 4.205a6.235 6.235 0 0 1-6.228-6.227c0-2.043.993-3.854 2.517-4.99l-.138-2.83C6.988 14.18 5 17.15 5 20.577c0 4.807 3.911 8.718 8.719 8.718 3.337 0 6.241-1.886 7.706-4.647l-1.51-3.468a6.235 6.235 0 0 1-6.196 5.624z"/>
</svg>
