<svg xmlns="http://www.w3.org/2000/svg" xmlns:xlink="http://www.w3.org/1999/xlink" width="32" height="32" viewBox="0 0 32 32">
    <defs>
        <path id="a" d="M0 19.847h29.857V0H0z"/>
    </defs>
    <g fill="none" fill-rule="evenodd">
        <path fill="" d="M0 0h32v32H0z"/>
        <g transform="translate(1 6)">
            <path fill="#FFF" d="M13.071 14.23H9.106c-.369 0-.669.32-.669.718 0 .397.3.72.669.72h3.965c.369 0 .667-.322.667-.719 0-.397-.298-.72-.667-.72M4.804 7.4h8.267c.369 0 .667-.324.667-.72 0-.398-.298-.72-.667-.72H4.804c-.369 0-.667.322-.667.72 0 .396.298.72.667.72M13.071 8.717H4.804c-.368 0-.667.321-.667.718 0 .397.299.72.667.72h8.267c.369 0 .667-.323.667-.72 0-.397-.298-.718-.667-.718M13.07 11.414h-.008l-8.266.118a.642.642 0 0 0-.471.219.752.752 0 0 0-.189.51c.006.394.305.71.669.71h.008l8.266-.119c.369-.004.664-.332.66-.729-.006-.394-.304-.71-.668-.71M20.426 5.65c.899 0 1.629.788 1.629 1.754 0 .968-.73 1.754-1.629 1.754-.897 0-1.628-.786-1.628-1.754 0-.966.731-1.753 1.628-1.753m0 5.01c1.667 0 3.024-1.46 3.024-3.257 0-1.795-1.357-3.258-3.024-3.258S17.4 5.609 17.4 7.404c0 1.797 1.359 3.257 3.026 3.257M16.56 14.196c.2-.841.673-1.455 1.192-1.455h5.347c.52 0 .993.614 1.193 1.455H16.56zm9.226.732c-.051-2.069-1.231-3.692-2.687-3.692h-5.347c-1.453 0-2.634 1.622-2.687 3.692l-.019.773h10.76l-.02-.773z"/>
            <mask id="b" fill="#fff">
                <use xlink:href="#a"/>
            </mask>
            <path fill="#FFF" d="M1.286 18.462H28.57V1.385H1.286v17.077zM29.214.001H.643C.289 0 0 .31 0 .693v18.461c0 .382.289.693.643.693h28.571c.356 0 .643-.311.643-.693V.693c0-.382-.287-.692-.643-.692z" mask="url(#b)"/>
        </g>
    </g>
</svg>
