<svg xmlns="http://www.w3.org/2000/svg" width="32" height="32" viewBox="0 0 32 32">
    <g fill="none" fill-rule="evenodd">
        <path fill="" d="M0 0h32v32H0z"/>
        <path fill="#FFF" d="M29.402 16.35c-.005 3.988-1.448 7.485-4.063 9.845-2.336 2.118-5.466 3.238-9.048 3.238-5.205 0-9.895-2.836-12.236-7.4A13.31 13.31 0 0 1 2.598 16c0-2.083.504-4.171 1.455-6.033 2.343-4.564 7.033-7.4 12.238-7.4 3.202 0 6.133 1.02 8.528 2.956l-3.027 2.97c-1.537-1.206-3.424-1.84-5.5-1.84-4.007 0-7.57 2.57-8.868 6.397A9.16 9.16 0 0 0 6.927 16c0 .99.169 1.982.497 2.947 1.298 3.826 4.859 6.398 8.867 6.398 2.018 0 3.868-.515 5.35-1.487 1.713-1.127 2.862-2.83 3.233-4.8l.176-.928h-7.96V14.2h12.165c.096.677.146 1.368.147 2.058l.8-.004-.8.096zm1.323-3.076l-.12-.644H15.493v7.07h7.555a5.837 5.837 0 0 1-2.295 2.855c-1.218.8-2.76 1.223-4.46 1.223-3.319 0-6.272-2.14-7.352-5.326A7.576 7.576 0 0 1 8.527 16c0-.822.138-1.646.413-2.454 1.08-3.185 4.033-5.326 7.351-5.326 1.931 0 3.655.66 4.987 1.911l.564.53 5.295-5.196-.607-.552C23.73 2.353 20.19 1 16.291 1 10.478 1 5.243 4.166 2.626 9.264A14.868 14.868 0 0 0 1 16c0 2.327.563 4.657 1.628 6.736C5.243 27.834 10.478 31 16.29 31c3.99 0 7.495-1.263 10.13-3.652 2.946-2.66 4.572-6.564 4.579-10.996v-.101a16.974 16.974 0 0 0-.275-2.977z"/>
    </g>
</svg>
