<svg xmlns="http://www.w3.org/2000/svg" xmlns:xlink="http://www.w3.org/1999/xlink" width="32" height="32" viewBox="0 0 32 32">
    <defs>
        <path id="a" d="M0 0h22v30H0z"/>
    </defs>
    <g fill="none" fill-rule="evenodd">
        <path fill="" d="M0 0h32v32H0z"/>
        <g transform="translate(5 1)">
            <mask id="b" fill="#fff">
                <use xlink:href="#a"/>
            </mask>
            <path fill="#FFF" d="M9.898 23.997c-.861-.843-4.479-4.37-6.166-5.791-2.018-1.7-2.373-3.063-2.432-3.57-.014-.11.012-.163.053-.212.16-.176.62-.315 1.05-.315.36 0 1.07.71 2.63 2.261l.481.48c.319.311 1.291 1.263 2.21.839.983-.45.932-2.03.892-2.49V2.412a1.14 1.14 0 0 1 2.278 0v8.474c0 .349.29.632.645.632a.641.641 0 0 0 .65-.633V8.143c0-.629.512-1.141 1.14-1.141.628 0 1.138.512 1.138 1.14v2.745c0 .349.291.632.65.632.359 0 .65-.283.65-.633V9.693c0-.504.407-.916.91-.916.505 0 .915.409.915.912l-.022 2.747c0 .351.29.636.646.636a.644.644 0 0 0 .648-.654.924.924 0 0 1 .916-.899c.506 0 .917.416.917.955.015.87.059 5.32-.68 7.47a279.017 279.017 0 0 1-1.424 4.054H9.898zM8.304 28.73h11.344v-3.462H8.304v3.462zM21.99 12.435c0-1.206-.992-2.188-2.211-2.188-.31 0-.615.064-.895.187l.006-.742c0-1.205-.994-2.187-2.213-2.187-.344 0-.664.085-.955.222A2.429 2.429 0 0 0 13.33 5.73a2.43 2.43 0 0 0-1.142.294V2.412C12.188 1.082 11.095 0 9.753 0 8.41 0 7.317 1.082 7.317 2.412l.001 12.838c.05.633-.067 1.134-.13 1.26-.089-.027-.326-.135-.764-.57l-.47-.466c-2.086-2.077-2.647-2.636-3.55-2.636-.653 0-1.528.197-2.026.748-.292.33-.42.744-.365 1.195.092.816.59 2.469 2.87 4.389.672.565 2.12 1.876 5.17 4.827h-.4a.641.641 0 0 0-.648.633v4.737c0 .349.29.633.649.633h12.64a.642.642 0 0 0 .649-.633V24.63a.642.642 0 0 0-.65-.633h-.324c.299-.83.776-2.18 1.278-3.65.888-2.589.745-7.867.744-7.912z" mask="url(#b)"/>
        </g>
    </g>
</svg>
