<svg xmlns="http://www.w3.org/2000/svg" xmlns:xlink="http://www.w3.org/1999/xlink" width="32" height="32" viewBox="0 0 32 32">
    <defs>
        <path id="a" d="M0 0h29v25.825H0z"/>
    </defs>
    <g fill="none" fill-rule="evenodd">
        <path fill="" d="M0 0h32v32H0z"/>
        <g transform="translate(1 3)">
            <mask id="b" fill="#fff">
                <use xlink:href="#a"/>
            </mask>
            <path fill="#FFF" d="M11.164 24.449l.984-2.276h4.463l.983 2.276h-6.43zm5.848-3.626H1.5c-.131 0-.238-.114-.238-.254V1.606c0-.14.107-.257.238-.257h26.002c.131 0 .238.117.238.257v18.963c0 .14-.107.254-.238.254H17.012zM27.501 0H1.499C.672 0 .001.722.001 1.606v18.963c0 .884.671 1.604 1.498 1.604h9.259l-.983 2.276H8.176c-.355 0-.644.307-.644.687 0 .379.289.69.644.69H20.51c.356 0 .643-.311.643-.69 0-.38-.287-.687-.643-.687h-1.525l-.985-2.276h9.502c.827 0 1.498-.72 1.498-1.604V1.606C29 .722 28.328 0 27.501 0z" mask="url(#b)"/>
        </g>
    </g>
</svg>
