<svg xmlns="http://www.w3.org/2000/svg" width="32" height="32" viewBox="0 0 32 32">
    <defs>
        <path id="a" d="M0 0h32v32H0z"/>
    </defs>
    <g fill="none" fill-rule="evenodd">
        <path fill="#16254F" fill-rule="nonzero" d="M25.029 22.736L31 28.706 28.705 31l-5.97-5.969a13.421 13.421 0 0 1-8.294 2.854 13.408 13.408 0 0 1-9.509-3.932C-.31 18.71-.31 10.18 4.932 4.939A13.357 13.357 0 0 1 14.441 1c3.593 0 6.97 1.398 9.51 3.939 4.854 4.853 5.214 12.526 1.078 17.797zM14.441 4.246c-2.725 0-5.287 1.06-7.214 2.987-3.977 3.976-3.977 10.448 0 14.425 3.98 3.977 10.452 3.977 14.428 0 3.978-3.977 3.978-10.449 0-14.425a10.137 10.137 0 0 0-7.214-2.988z"/>
    </g>
</svg>
