<svg xmlns="http://www.w3.org/2000/svg" width="40" height="40" viewBox="0 0 40 40">
    <path fill="#FFF" fill-rule="evenodd" d="M19.545 6.667a7.879 7.879 0 1 1 0 15.757 7.879 7.879 0 0 1 0-15.757zm14.696 23.695A17.525 17.525 0 0 0 37.619 20c0-9.715-7.904-17.62-17.62-17.62-9.715 0-17.618 7.905-17.618 17.62 0 3.87 1.254 7.452 3.378 10.362.032-.094.065-.187.1-.28 1.39-3.709 4.615-6.54 8.554-7.38A9.878 9.878 0 0 0 20 24.428a9.842 9.842 0 0 0 5.587-1.724c3.939.838 7.163 3.67 8.554 7.38.035.092.067.185.1.279zm4.186-18.147A19.872 19.872 0 0 1 40 20c0 2.7-.529 5.319-1.572 7.785a19.878 19.878 0 0 1-4.285 6.357 19.891 19.891 0 0 1-6.356 4.286A19.877 19.877 0 0 1 20 40c-2.7 0-5.319-.529-7.786-1.572a19.892 19.892 0 0 1-6.356-4.286 19.878 19.878 0 0 1-4.285-6.356A19.875 19.875 0 0 1 0 20c0-2.7.53-5.319 1.572-7.785a19.925 19.925 0 0 1 4.286-6.357A19.94 19.94 0 0 1 20 0a19.94 19.94 0 0 1 14.142 5.858 19.926 19.926 0 0 1 4.285 6.357z"/>
</svg>
