<svg xmlns="http://www.w3.org/2000/svg" xmlns:xlink="http://www.w3.org/1999/xlink" width="32" height="32" viewBox="0 0 32 32">
    <defs>
        <path id="a" d="M0 0h30v30H0z"/>
    </defs>
    <g fill="none" fill-rule="evenodd">
        <g transform="translate(1 1)">
            <mask id="b" fill="#fff">
                <use xlink:href="#a"/>
            </mask>
            <path fill="#16254F" d="M15.002 28.496C7.548 28.48 1.519 22.454 1.504 15 1.519 7.545 7.548 1.517 15.002 1.507c7.45.01 13.477 6.038 13.49 13.493-.013 7.454-6.04 13.48-13.49 13.496m0-28.496C6.716 0 0 6.717 0 15c0 8.286 6.715 14.997 15 15 8.284-.003 14.996-6.714 15-15-.004-8.283-6.716-15-15-15" mask="url(#b)"/>
        </g>
        <path fill="#16254F" d="M15.293 4.802v10.492H7.635v1.412h9.072V4.802z"/>
    </g>
</svg>
