<svg xmlns="http://www.w3.org/2000/svg" xmlns:xlink="http://www.w3.org/1999/xlink" width="32" height="32" viewBox="0 0 32 32">
    <defs>
        <path id="a" d="M0 .346h25.376V30.16H0z"/>
    </defs>
    <g fill="none" fill-rule="evenodd">
        <g transform="translate(3 .694)">
            <mask id="b" fill="#fff">
                <use xlink:href="#a"/>
            </mask>
            <path fill="#16254F" d="M2.194 6.207L5.86 2.543v3.664H2.194zm-.908 1.285h5.216c.355 0 .643-.29.643-.643V1.633h16.946v27.241H1.286V7.492zM24.733.346H6.503c-.032 0-.059.014-.088.018a.637.637 0 0 0-.365.17h-.002l-5.86 5.86v.002a.651.651 0 0 0-.172.373C.013 6.796 0 6.82 0 6.85v22.668c0 .355.288.643.643.643h24.09a.644.644 0 0 0 .643-.643V.99a.645.645 0 0 0-.643-.643z" mask="url(#b)"/>
        </g>
        <path fill="#16254F" d="M22.897 8.808H11.68a.644.644 0 0 0 0 1.286h11.218a.644.644 0 0 0 0-1.286M22.897 11.327H11.68a.644.644 0 0 0 0 1.286h11.218a.644.644 0 0 0 0-1.285M22.897 13.907H15.85a.644.644 0 0 0-.644.643c0 .353.29.642.644.642h7.047c.354 0 .643-.289.643-.642a.644.644 0 0 0-.643-.643M25.091 8.808a.644.644 0 0 0-.642.643v.513a.644.644 0 0 0 1.285 0V9.45a.643.643 0 0 0-.643-.643"/>
    </g>
</svg>
