<svg xmlns="http://www.w3.org/2000/svg" xmlns:xlink="http://www.w3.org/1999/xlink" width="32" height="32" viewBox="0 0 32 32">
    <defs>
        <path id="a" d="M0 0h30v30H0z"/>
    </defs>
    <g fill="none" fill-rule="evenodd">
        <g transform="translate(1 1)">
            <mask id="b" fill="#fff">
                <use xlink:href="#a"/>
            </mask>
            <path fill="#16254F" d="M28.747 15c0 7.58-6.167 13.747-13.747 13.747S1.253 22.58 1.253 15 7.42 1.252 15 1.252 28.747 7.42 28.747 15M15 0C6.73 0 0 6.729 0 15s6.73 15 15 15c8.271 0 15-6.729 15-15S23.27 0 15 0" mask="url(#b)"/>
        </g>
        <path fill="#16254F" d="M16 16.017a3.522 3.522 0 0 1-3.517-3.518 3.521 3.521 0 0 1 3.518-3.517 3.521 3.521 0 0 1 3.517 3.517 3.522 3.522 0 0 1-3.517 3.518m-.035 1.205c.348.002.935.062 1.185.102 1.516.242 4.275 1.305 5.893 5.694H8.957c1.386-3.768 3.606-5.1 5.253-5.556.266-.074.885-.262 1.756-.24m2.72-.786a4.749 4.749 0 0 0 2.085-3.937A4.775 4.775 0 0 0 16 7.73a4.776 4.776 0 0 0-4.772 4.77 4.76 4.76 0 0 0 2.096 3.932c-1.996.713-4.452 2.527-5.84 7.03l-.25.811h17.53l-.25-.811c-1.4-4.546-3.898-6.331-5.828-7.025"/>
    </g>
</svg>
