<svg xmlns="http://www.w3.org/2000/svg" width="17" height="16" viewBox="0 0 17 16">
    <path fill="#16254F" fill-rule="evenodd" d="M16.122 5.884c-.155-.422-.544-.76-.933-.76l-4.12-.59L9.28.658C8.97.067 8.27-.186 7.647.15c-.233.169-.388.337-.466.506L5.393 4.535l-4.199.674c-.389.085-.777.337-.933.759-.155.421 0 .843.311 1.18l3.032 3.204-.622 4.3c-.077.42.156.926.467 1.095a1.31 1.31 0 0 0 1.244.084l3.576-2.023 3.655 2.023c.155.085.388.169.544.169.233 0 .466-.084.7-.253.388-.253.544-.674.466-1.18l-.7-4.384 2.955-3.12c.311-.252.389-.758.233-1.18"/>
</svg>
