<svg xmlns="http://www.w3.org/2000/svg" width="16" height="16" viewBox="0 0 16 16">
    <path fill="#16254F" fill-rule="evenodd" d="M8.051 13.046l3.627 1.997c.149.08.297.08.37.08.149 0 .297-.08.445-.161.222-.16.37-.4.295-.718l-.665-4.392 2.961-3.114c.147-.16.222-.4.147-.719-.073-.24-.37-.479-.517-.479l-4.146-.56-1.776-3.832C8.495.83 8.052.75 7.606.908l-.295.32-1.777 3.913-4.146.638c-.222.08-.518.16-.592.48-.148.24 0 .48.222.639l3.036 3.194-.593 4.311c-.074.24.074.559.222.64.297.158.592.158.889.08l3.48-2.077zM12.048 16c-.221 0-.518-.08-.665-.24L8.05 14.004 4.794 15.84c-.52.24-1.11.159-1.555-.08-.445-.24-.74-.878-.593-1.437l.593-3.833L.5 7.537C.055 7.057-.092 6.499.055 5.94c.148-.48.593-.879 1.185-.96l3.85-.637L6.718.829c.075-.24.297-.4.593-.64.814-.399 1.703-.158 2.073.64l1.628 3.514 3.702.558c.444 0 .962.4 1.184.959.222.559.074 1.277-.37 1.597l-2.665 2.795.666 3.911c.074.64-.148 1.198-.592 1.518-.297.24-.592.319-.889.319z"/>
</svg>
