<svg xmlns="http://www.w3.org/2000/svg" xmlns:xlink="http://www.w3.org/1999/xlink" width="32" height="32" viewBox="0 0 32 32">
    <defs>
        <path id="a" d="M.21.41h27.922v13.23H.209z"/>
        <linearGradient id="b" x1="0%" y1="50%" y2="50%">
            <stop offset="0%" stop-color="#42A3FF"/>
            <stop offset="100%" stop-color="#90EBFF"/>
        </linearGradient>
        <path id="d" d="M0 .768h28.042V14H0z"/>
        <linearGradient id="e" x1="0%" y1="50%" y2="50%">
            <stop offset="0%" stop-color="#42A3FF"/>
            <stop offset="100%" stop-color="#90EBFF"/>
        </linearGradient>
        <linearGradient id="g" x1="0%" y1="50%" y2="50%">
            <stop offset="0%" stop-color="#42A3FF"/>
            <stop offset="100%" stop-color="#90EBFF"/>
        </linearGradient>
    </defs>
    <g fill="none" fill-rule="evenodd">
        <g transform="translate(2.622 2.413)">
            <mask id="c" fill="#fff">
                <use xlink:href="#a"/>
            </mask>
            <path fill="url(#b)" d="M1.298 12.795C1.77 6.81 6.563 1.97 12.448 1.54c3.206-.226 6.318.82 8.75 2.969a12.307 12.307 0 0 1 3.99 7.235l-1.694-1.178-.606.906 3.118 2.167 2.126-3.178-.889-.618-1.026 1.534a13.411 13.411 0 0 0-4.313-7.696C19.253 1.34 15.868.184 12.371.447 5.961.916.738 6.187.225 12.71l-.016.205L1.282 13l.016-.205z" mask="url(#c)"/>
        </g>
        <g transform="translate(1 15.59)">
            <mask id="f" fill="#fff">
                <use xlink:href="#d"/>
            </mask>
            <path fill="url(#e)" d="M26.954 1.439c-.391 6.082-5.19 10.997-11.163 11.433-6.16.445-11.664-3.96-12.724-10.12l1.571 1.203.647-.877L2.268.768 0 3.843l.86.66 1.147-1.557a13.408 13.408 0 0 0 4.33 7.785 12.958 12.958 0 0 0 9.532 3.234c6.506-.475 11.733-5.828 12.16-12.454l.013-.206-1.074-.071-.014.205z" mask="url(#f)"/>
        </g>
        <path fill="url(#g)" d="M13.252 14.432c.242-.07.804-.244 1.595-.223.317.001.85.058 1.077.094 1.376.224 3.881 1.21 5.35 5.273H8.483c1.259-3.489 3.275-4.722 4.77-5.144m-1.568-4.595c0-1.797 1.433-3.257 3.194-3.257 1.762 0 3.195 1.46 3.195 3.257 0 1.796-1.433 3.256-3.195 3.256-1.76 0-3.194-1.46-3.194-3.256M7.146 19.985l-.227.751h15.918l-.226-.75c-1.272-4.21-3.54-5.863-5.293-6.505a4.424 4.424 0 0 0 1.892-3.644c0-2.436-1.942-4.418-4.332-4.418-2.389 0-4.332 1.982-4.332 4.418 0 1.5.748 2.837 1.904 3.64-1.813.66-4.044 2.34-5.304 6.508" transform="translate(1 2)"/>
    </g>
</svg>
